<mxfile host="app.diagrams.net" modified="2023-01-25T06:43:16.332Z" agent="5.0 (Windows NT 10.0; Win64; x64) AppleWebKit/537.36 (KHTML, like Gecko) Chrome/109.0.0.0 Safari/537.36" etag="LGpDwqSuU4iRDhgK_aIO" version="20.8.11" type="github">
  <diagram id="C5RBs43oDa-KdzZeNtuy" name="Page-1">
    <mxGraphModel dx="1028" dy="1713" grid="1" gridSize="10" guides="1" tooltips="1" connect="1" arrows="1" fold="1" page="1" pageScale="1" pageWidth="827" pageHeight="1169" math="0" shadow="0">
      <root>
        <mxCell id="WIyWlLk6GJQsqaUBKTNV-0" />
        <mxCell id="WIyWlLk6GJQsqaUBKTNV-1" parent="WIyWlLk6GJQsqaUBKTNV-0" />
        <mxCell id="4V_Cb58beCujMAhgjBbZ-2" value="" style="edgeStyle=orthogonalEdgeStyle;rounded=0;orthogonalLoop=1;jettySize=auto;html=1;startArrow=none;" edge="1" parent="WIyWlLk6GJQsqaUBKTNV-1" source="4V_Cb58beCujMAhgjBbZ-6" target="4V_Cb58beCujMAhgjBbZ-1">
          <mxGeometry relative="1" as="geometry" />
        </mxCell>
        <mxCell id="4V_Cb58beCujMAhgjBbZ-0" value="start" style="ellipse;whiteSpace=wrap;html=1;" vertex="1" parent="WIyWlLk6GJQsqaUBKTNV-1">
          <mxGeometry x="105" y="-570" width="120" height="80" as="geometry" />
        </mxCell>
        <mxCell id="4V_Cb58beCujMAhgjBbZ-1" value="end" style="ellipse;whiteSpace=wrap;html=1;" vertex="1" parent="WIyWlLk6GJQsqaUBKTNV-1">
          <mxGeometry x="105" y="-80" width="120" height="80" as="geometry" />
        </mxCell>
        <mxCell id="4V_Cb58beCujMAhgjBbZ-4" value="" style="edgeStyle=orthogonalEdgeStyle;rounded=0;orthogonalLoop=1;jettySize=auto;html=1;endArrow=none;" edge="1" parent="WIyWlLk6GJQsqaUBKTNV-1" source="4V_Cb58beCujMAhgjBbZ-0" target="4V_Cb58beCujMAhgjBbZ-3">
          <mxGeometry relative="1" as="geometry">
            <mxPoint x="165" y="-490" as="sourcePoint" />
            <mxPoint x="165" y="-180" as="targetPoint" />
          </mxGeometry>
        </mxCell>
        <mxCell id="4V_Cb58beCujMAhgjBbZ-3" value="input&lt;br&gt;get firstnum()&lt;br&gt;get secondnum()" style="shape=parallelogram;perimeter=parallelogramPerimeter;whiteSpace=wrap;html=1;fixedSize=1;" vertex="1" parent="WIyWlLk6GJQsqaUBKTNV-1">
          <mxGeometry x="90" y="-360" width="150" height="60" as="geometry" />
        </mxCell>
        <mxCell id="4V_Cb58beCujMAhgjBbZ-5" value="firstnum=0&lt;br&gt;secondnum=0&lt;br&gt;sum=0&lt;br&gt;ave=0" style="shape=hexagon;perimeter=hexagonPerimeter2;whiteSpace=wrap;html=1;fixedSize=1;" vertex="1" parent="WIyWlLk6GJQsqaUBKTNV-1">
          <mxGeometry x="105" y="-470" width="120" height="80" as="geometry" />
        </mxCell>
        <mxCell id="4V_Cb58beCujMAhgjBbZ-7" value="output&lt;br&gt;display ave" style="shape=parallelogram;perimeter=parallelogramPerimeter;whiteSpace=wrap;html=1;fixedSize=1;" vertex="1" parent="WIyWlLk6GJQsqaUBKTNV-1">
          <mxGeometry x="105" y="-180" width="120" height="60" as="geometry" />
        </mxCell>
        <mxCell id="4V_Cb58beCujMAhgjBbZ-8" value="" style="edgeStyle=orthogonalEdgeStyle;rounded=0;orthogonalLoop=1;jettySize=auto;html=1;startArrow=none;endArrow=none;" edge="1" parent="WIyWlLk6GJQsqaUBKTNV-1" source="4V_Cb58beCujMAhgjBbZ-3" target="4V_Cb58beCujMAhgjBbZ-6">
          <mxGeometry relative="1" as="geometry">
            <mxPoint x="170" y="-296" as="sourcePoint" />
            <mxPoint x="165" y="-80" as="targetPoint" />
          </mxGeometry>
        </mxCell>
        <mxCell id="4V_Cb58beCujMAhgjBbZ-6" value="ave=sum/2" style="rounded=0;whiteSpace=wrap;html=1;" vertex="1" parent="WIyWlLk6GJQsqaUBKTNV-1">
          <mxGeometry x="105" y="-270" width="120" height="60" as="geometry" />
        </mxCell>
        <mxCell id="4V_Cb58beCujMAhgjBbZ-9" value="Flowchart 1: Averaging 2 Numbers" style="text;html=1;align=center;verticalAlign=middle;resizable=0;points=[];autosize=1;strokeColor=none;fillColor=none;" vertex="1" parent="WIyWlLk6GJQsqaUBKTNV-1">
          <mxGeometry x="60" y="-620" width="210" height="30" as="geometry" />
        </mxCell>
      </root>
    </mxGraphModel>
  </diagram>
</mxfile>
